<?xml version="1.0" encoding="utf-8"?>
<!-- Svg Vector Icons : http://www.onlinewebfonts.com/icon -->
<!DOCTYPE svg PUBLIC "-//W3C//DTD SVG 1.1//EN" "http://www.w3.org/Graphics/SVG/1.1/DTD/svg11.dtd">
<svg fill="white" version="1.1" xmlns="http://www.w3.org/2000/svg" xmlns:xlink="http://www.w3.org/1999/xlink" x="0px" y="0px" viewBox="0 0 1000 1000" enable-background="new 0 0 1000 1000" xml:space="preserve">
<metadata> Svg Vector Icons : http://www.onlinewebfonts.com/icon </metadata>
<g><g transform="translate(0.000000,512.000000) scale(0.100000,-0.100000)"><path d="M4622.6,5016.9c-693.8-70.9-1213.2-214.7-1782.4-494.5c-500.2-245.3-856.7-498.3-1263-891.2c-417.8-408.2-722.6-828-981.3-1353.1c-241.5-494.5-389.1-979.4-471.5-1552.4c-32.6-226.2-32.6-981.3,0-1207.5c136.1-950.6,504.1-1803.5,1082.9-2506.9c1353.1-1642.5,3595.5-2229,5571.5-1458.5C8043.7-3952.7,9071-2923.5,9569.3-1650.9C9772.5-1127.7,9876-625.6,9897-41c46,1326.3-446.6,2604.6-1374.2,3562.9c-421.7,435.1-833.7,736-1370.4,998.5c-483,237.7-927.6,377.6-1466.2,460C5492.8,5009.2,4789.4,5034.1,4622.6,5016.9z M7470.7,2147.7c46-24.9,111.2-82.4,141.8-126.5c49.8-70.9,57.5-97.7,57.5-208.9c0-95.8-9.6-143.7-38.3-187.8c-65.2-101.6-3072.3-3444.1-3148.9-3499.7c-86.2-65.1-212.7-84.3-329.7-53.7c-78.6,21.1-168.7,105.4-927.6,858.6c-563.5,561.6-851,862.5-875.9,914.2c-84.3,182.1-1.9,404.4,184,504.1c72.8,36.4,251.1,38.3,320.1,1.9c28.8-15.3,356.5-325.8,728.3-690l676.5-661.2L5571.3,461.2C7129.5,2199.5,7079.7,2145.8,7164,2168.8C7277.1,2201.4,7380.6,2193.7,7470.7,2147.7z"/></g></g>
</svg>